<?xml version="1.0" standalone="no"?>
<!DOCTYPE svg PUBLIC "-//W3C//DTD SVG 20010904//EN"
 "http://www.w3.org/TR/2001/REC-SVG-20010904/DTD/svg10.dtd">
<svg version="1.0" xmlns="http://www.w3.org/2000/svg"
 width="16.000000pt" height="16.000000pt" viewBox="0 0 16.000000 16.000000"
 preserveAspectRatio="xMidYMid meet">
<metadata>
Created by potrace 1.11, written by Peter Selinger 2001-2013
</metadata>
<g transform="translate(0.000000,16.000000) scale(0.006154,-0.006154)"
fill="#000000" stroke="none">
<path d="M927 2484 c-1 -1 -29 -4 -62 -8 -192 -20 -400 -122 -528 -261 -46
-50 -48 -57 -23 -111 33 -71 76 -116 143 -149 53 -27 67 -30 168 -30 61 0 124
3 140 6 176 38 210 43 320 43 136 0 182 -6 278 -33 146 -42 277 -121 389 -235
107 -109 206 -265 197 -312 -5 -27 2 -104 10 -104 8 0 18 128 25 300 14 390
-219 689 -644 829 -101 33 -118 37 -220 51 -56 9 -188 18 -193 14z m148 -57
c27 -23 55 -46 61 -52 12 -11 67 -56 128 -104 21 -17 36 -31 33 -31 -3 0 -36
7 -74 17 -113 27 -447 23 -588 -7 -22 -5 -54 -11 -72 -14 -36 -7 -195 -44
-221 -52 -24 -8 86 97 142 135 105 73 232 122 356 138 25 3 46 6 47 7 1 1 33
3 70 3 65 1 69 0 118 -40z m160 7 c97 -25 225 -74 302 -116 85 -46 176 -112
179 -130 2 -7 5 -24 8 -38 3 -14 8 -37 12 -52 3 -15 6 -30 6 -33 0 -2 6 -28
14 -57 7 -29 14 -58 14 -64 0 -6 -35 23 -77 65 -92 91 -168 142 -272 185 -50
20 -105 54 -157 96 -43 35 -81 67 -84 70 -3 3 -32 28 -65 54 l-60 49 60 -7
c33 -4 87 -14 120 -22z m-110 -178 c67 -8 173 -31 182 -40 3 -2 -6 -11 -19
-19 -26 -16 -234 -134 -306 -174 -26 -14 -52 -29 -57 -34 -9 -7 -63 -21 -130
-35 -11 -2 -33 -6 -48 -10 -16 -3 -60 -7 -98 -9 -118 -5 -223 34 -278 104 -29
36 -66 110 -59 116 5 4 102 33 148 44 137 31 208 43 335 57 33 3 61 7 62 8 5
4 210 -2 268 -8z m325 -93 c41 -19 100 -53 130 -75 53 -39 190 -175 190 -189
0 -7 -125 -4 -222 6 -31 3 -76 13 -100 24 -39 16 -125 39 -218 57 -43 8 -231
8 -262 -1 -32 -8 -23 -3 187 119 119 68 187 102 200 99 11 -2 54 -20 95 -40z
m377 -91 c64 -88 108 -187 129 -287 11 -55 17 -265 7 -265 -5 0 -18 28 -27 63
-24 87 -63 180 -101 246 -36 59 -52 109 -71 216 -2 17 -9 46 -14 65 -23 81 0
70 77 -38z m-96 -191 l55 -1 41 -72 c47 -84 105 -242 101 -275 -3 -19 -11 -12
-48 44 -60 89 -179 208 -262 262 -38 24 -68 45 -68 45 0 1 28 1 63 0 34 -2 87
-3 118 -3z"/>
<path d="M800 2420 c-148 -30 -331 -115 -380 -175 -8 -10 -10 -16 -4 -12 9 5
163 42 219 52 250 45 417 51 530 19 11 -3 -14 26 -55 65 l-75 71 -75 -1 c-41
-1 -113 -10 -160 -19z"/>
<path d="M1250 2343 c44 -43 93 -82 108 -87 154 -49 248 -102 322 -182 l43
-47 -7 34 c-4 19 -10 48 -13 64 -8 48 -30 73 -111 126 -108 71 -257 136 -352
154 -19 3 -43 9 -53 12 -10 2 19 -31 63 -74z"/>
<path d="M848 2225 c-2 -1 -39 -5 -83 -9 -92 -7 -100 -8 -252 -37 -149 -28
-154 -33 -111 -89 63 -83 137 -112 275 -111 152 2 188 13 366 118 178 104 190
113 162 114 -11 0 -31 2 -45 4 -30 5 -308 14 -312 10z"/>
<path d="M1290 2156 c-19 -12 -66 -40 -105 -60 -38 -21 -73 -41 -77 -45 -4 -3
32 -6 80 -7 95 -1 193 -29 280 -80 40 -24 56 -27 129 -26 47 0 86 2 89 4 8 9
-90 100 -144 135 -59 38 -191 103 -207 102 -5 0 -26 -10 -45 -23z"/>
<path d="M1784 2075 c13 -96 36 -175 70 -240 20 -38 50 -113 67 -167 17 -54
33 -98 36 -98 9 0 -7 173 -22 231 -22 85 -63 175 -113 249 l-44 65 6 -40z"/>
<path d="M1615 1860 c-2 -3 9 -11 25 -18 52 -23 165 -127 218 -201 28 -40 52
-67 52 -59 0 8 -4 18 -8 24 -5 5 -19 38 -32 73 -28 77 -78 171 -94 176 -18 7
-158 11 -161 5z"/>
<path d="M1121 1384 c-36 -30 -51 -77 -51 -156 0 -55 -1 -58 -26 -58 -23 0
-25 -3 -22 -42 2 -25 8 -44 16 -44 6 -1 17 -2 22 -3 7 -1 10 -61 8 -173 l-3
-173 -43 0 c-24 0 -46 2 -50 5 -4 3 -7 82 -8 175 0 142 -3 175 -18 203 -19 37
-84 72 -126 67 -14 -1 -33 -3 -42 -4 -10 0 -33 -17 -53 -36 l-35 -36 0 31 c0
22 -5 30 -17 31 -10 0 -30 2 -45 3 -21 1 -28 -3 -28 -17 0 -17 -1 -17 -26 2
-52 41 -113 21 -146 -48 -21 -42 -23 -60 -23 -201 0 -170 11 -212 66 -253 59
-43 152 -26 188 34 l20 32 11 -25 c25 -55 106 -75 154 -37 25 19 26 19 26 2 0
-18 11 -19 183 -18 l182 0 0 45 c0 42 -2 45 -27 45 -15 1 -30 3 -33 6 -6 7 -8
326 -1 337 2 4 28 7 58 7 l53 0 1 -185 c1 -189 6 -218 43 -247 23 -18 73 -16
100 3 19 14 25 14 32 3 6 -11 44 -14 169 -14 88 0 160 3 161 7 1 4 1 19 1 33
0 50 -2 56 -19 53 -17 -3 -18 11 -19 157 -2 132 1 163 14 178 19 22 39 22 51
0 5 -10 9 -101 9 -203 0 -102 1 -194 1 -205 1 -19 7 -21 119 -20 64 0 136 -4
159 -9 71 -15 133 27 160 110 11 30 10 31 -32 46 l-43 16 -5 -28 c-6 -28 -31
-60 -47 -60 -20 0 -39 48 -43 102 l-4 57 91 3 91 3 -1 91 c-2 143 -47 209
-142 207 -39 0 -50 -5 -78 -36 -18 -19 -38 -55 -45 -79 -12 -44 -17 -206 -9
-288 5 -48 5 -48 -63 -41 -10 1 -13 35 -13 159 1 187 -5 229 -41 261 -31 27
-81 24 -116 -6 -19 -17 -20 -17 -14 0 4 12 1 17 -11 18 -87 4 -122 2 -126 -6
-8 -21 0 -80 11 -80 6 0 15 -4 20 -8 8 -9 12 -336 3 -338 -23 -4 -77 -5 -85
-2 -7 2 -10 80 -10 218 l1 215 -23 1 c-13 0 -39 1 -58 1 -67 0 -65 1 -65 -47
0 -25 3 -44 8 -44 39 6 40 5 39 -158 0 -126 -3 -162 -15 -175 -19 -23 -39 -23
-50 0 -5 9 -8 108 -7 220 l1 202 -25 1 c-15 0 -64 1 -111 2 -47 1 -84 5 -82
10 1 4 2 36 2 72 0 51 4 67 16 72 11 4 23 -2 33 -16 15 -19 21 -21 46 -11 17
6 36 13 43 15 17 6 -9 58 -40 79 -36 26 -111 21 -147 -10z m-535 -317 c7 -21
11 -46 13 -74 1 -9 17 -13 46 -13 45 0 45 0 45 35 0 36 5 39 50 26 21 -6 27
-3 40 23 16 32 44 43 70 27 10 -7 15 -31 16 -80 2 -70 1 -70 -19 -56 -47 33
-136 3 -158 -52 -24 -60 -22 -58 -70 -62 -12 -1 -18 -14 -22 -47 -2 -25 -11
-52 -18 -60 -17 -16 -55 -8 -65 14 -12 28 -15 262 -4 302 14 53 61 63 76 17z
m1578 11 c9 -13 16 -43 16 -70 l0 -48 -43 0 -44 0 4 51 c5 85 35 114 67 67z
m-1313 -201 c25 -19 23 -123 -3 -141 -44 -31 -86 20 -75 92 9 53 44 75 78 49z"/>
<path d="M2107 1315 c-20 -42 -37 -78 -37 -80 0 -3 15 -5 33 -5 35 0 33 -2
111 108 l38 52 -54 0 -54 0 -37 -75z"/>
<path d="M390 438 c0 -5 419 -8 930 -8 512 0 930 4 930 8 0 4 -418 8 -930 8
-511 -1 -930 -4 -930 -8z"/>
<path d="M2015 327 c-15 -9 -20 -23 -20 -55 0 -39 2 -42 28 -42 19 0 27 5 26
18 0 10 -3 12 -6 5 -7 -18 -33 -16 -33 2 0 8 6 15 14 15 18 0 27 25 18 49 -6
16 -10 18 -27 8z m23 -29 c-6 -18 -28 -21 -28 -4 0 9 7 16 16 16 9 0 14 -5 12
-12z"/>
<path d="M613 303 c-4 -11 1 -22 15 -31 12 -8 22 -18 22 -23 0 -14 -28 -11
-33 4 -3 7 -6 5 -6 -5 -1 -23 37 -24 46 -1 4 10 -2 23 -15 34 -27 22 -28 33
-2 26 11 -3 18 -1 14 4 -9 15 -34 10 -41 -8z"/>
<path d="M682 308 c-27 -27 -7 -78 29 -78 23 0 49 38 41 59 -11 31 -48 41 -70
19z m48 -13 c14 -17 4 -55 -15 -55 -19 0 -37 34 -29 54 8 20 28 21 44 1z"/>
<path d="M765 303 c13 -66 16 -73 33 -73 26 0 42 20 42 52 0 23 4 28 24 28 20
0 23 -5 22 -27 -1 -16 -5 -34 -9 -40 -6 -9 -2 -13 10 -13 16 0 18 6 15 40 -4
35 -1 40 16 40 23 0 30 -14 26 -52 -2 -18 2 -28 11 -28 8 0 11 7 8 20 -4 16 0
20 17 20 17 0 21 -4 17 -20 -3 -11 0 -20 6 -20 7 0 12 18 12 45 0 28 -4 45
-11 45 -7 0 -10 -8 -7 -19 4 -16 0 -20 -17 -18 -14 1 -20 7 -17 18 4 14 -6 17
-67 18 l-72 2 4 -36 c3 -26 0 -36 -13 -41 -22 -9 -33 10 -29 47 3 20 -1 29
-10 29 -8 0 -13 -8 -11 -17z"/>
<path d="M1097 314 c-2 -5 -12 -26 -20 -46 -14 -32 -14 -38 -2 -38 9 0 12 6 8
16 -4 12 -1 15 13 12 10 -2 18 -10 17 -16 -2 -7 10 -12 31 -12 31 0 33 2 29
28 -3 26 -3 26 8 5 16 -30 23 -29 37 5 l11 27 -3 -32 c-1 -19 2 -33 8 -33 7 0
11 19 11 45 0 50 -10 57 -27 20 -13 -30 -24 -32 -33 -6 -11 35 -31 32 -27 -4
2 -18 -1 -36 -8 -40 -15 -9 -19 -4 -35 41 -7 20 -15 33 -18 28z"/>
<path d="M1265 275 l0 -44 53 0 c41 1 50 4 42 13 -5 7 -7 16 -3 19 3 4 12 -2
20 -13 8 -11 19 -20 25 -20 6 0 4 8 -5 18 -10 10 -14 22 -10 26 9 9 13 36 5
37 -45 8 -62 7 -55 -4 4 -7 8 -24 9 -38 0 -23 -3 -26 -30 -25 -17 1 -29 6 -26
11 3 6 10 10 16 9 6 -1 11 4 11 11 0 7 -8 10 -17 8 -11 -3 -17 2 -17 12 0 11
6 15 19 12 10 -3 18 -1 18 4 0 5 -12 9 -27 9 -26 0 -28 -3 -28 -45z m115 20
c0 -8 -4 -15 -10 -15 -5 0 -10 7 -10 15 0 8 5 15 10 15 6 0 10 -7 10 -15z"/>
<path d="M1420 275 c0 -36 3 -45 18 -45 10 0 13 3 7 8 -12 8 -13 52 -2 70 5 8
3 12 -7 12 -12 0 -16 -11 -16 -45z"/>
<path d="M1473 308 c-19 -25 -22 -48 -7 -63 22 -21 64 -20 63 3 0 10 -3 12 -6
5 -6 -16 -39 -17 -48 -2 -4 5 -4 22 0 36 5 20 11 24 30 20 14 -2 25 0 25 4 0
14 -46 11 -57 -3z"/>
<path d="M1574 309 c-17 -22 -34 -79 -23 -79 5 0 9 7 9 15 0 8 4 15 10 15 5 0
7 8 4 18 -5 14 -4 15 5 2 6 -8 11 -23 11 -32 0 -10 7 -18 15 -18 13 0 14 4 4
22 -6 12 -15 33 -18 46 -5 19 -9 22 -17 11z"/>
<path d="M1628 313 c6 -2 12 -17 13 -31 0 -27 0 -27 10 -4 11 28 4 42 -19 41
-11 0 -12 -3 -4 -6z"/>
<path d="M1680 316 c0 -2 7 -6 15 -10 8 -3 15 -1 15 4 0 6 -7 10 -15 10 -8 0
-15 -2 -15 -4z"/>
<path d="M1768 309 c-21 -12 -24 -49 -6 -67 17 -17 55 -15 62 3 4 12 2 13 -14
3 -16 -10 -23 -10 -36 4 -13 12 -14 20 -5 37 13 24 31 27 50 9 10 -11 11 -10
6 5 -8 19 -31 22 -57 6z"/>
<path d="M1861 295 c-6 -16 -16 -38 -21 -47 -8 -14 -7 -18 5 -18 8 0 14 5 13
12 -2 6 6 14 16 16 14 3 17 0 13 -12 -4 -10 -1 -16 8 -16 18 0 18 5 -5 55
l-18 40 -11 -30z m19 -15 c0 -5 -5 -10 -11 -10 -5 0 -7 5 -4 10 3 6 8 10 11
10 2 0 4 -4 4 -10z"/>
<path d="M1925 275 c0 -37 3 -45 19 -45 15 0 16 3 6 15 -10 12 -8 16 11 23
l23 9 -22 5 c-15 4 -20 11 -16 22 4 10 1 16 -7 16 -10 0 -14 -14 -14 -45z"/>
<path d="M1966 305 c4 -8 8 -15 10 -15 2 0 4 7 4 15 0 8 -4 15 -10 15 -5 0 -7
-7 -4 -15z"/>
<path d="M1660 285 c0 -6 9 -21 19 -34 l18 -24 5 27 c3 15 1 29 -5 33 -6 3 -7
1 -3 -5 9 -16 -7 -15 -22 0 -7 7 -12 8 -12 3z"/>
<path d="M1635 240 c-3 -5 1 -10 10 -10 9 0 13 5 10 10 -3 6 -8 10 -10 10 -2
0 -7 -4 -10 -10z"/>
<path d="M410 130 c0 -10 1869 -10 1875 0 3 4 -418 8 -935 8 -517 0 -940 -4
-940 -8z"/>
</g>
</svg>
