<?xml version="1.0" encoding="utf-8"?>
<!-- Generator: Adobe Illustrator 21.0.2, SVG Export Plug-In . SVG Version: 6.00 Build 0)  -->
<svg version="1.1" id="Layer_1" xmlns="http://www.w3.org/2000/svg" xmlns:xlink="http://www.w3.org/1999/xlink" x="0px" y="0px"
	 width="150px" height="58.1px" viewBox="0 0 150 58.1" style="enable-background:new 0 0 150 58.1;" xml:space="preserve">
<style type="text/css">
	.st0{fill:#9C7B48;}
	.st1{fill:#F1D471;}
	.st2{fill:#2FBCE4;}
	.st3{fill:#E39633;}
	.st4{fill:#00B07D;}
	.st5{fill:#DB736F;}
	.st6{fill:#C43854;}
	.st7{fill:#9B7B47;}
</style>
<g>
	<g>
		<path class="st0" d="M49,37.2l-0.2-0.5c-0.1-0.2-6.8-16.3-25.1-16.3c-2.8,0-5.7,0.4-8.7,1.1c-1.8,0.4-3.6,0.7-5.1,0.7
			c-8.7,0-9.8-7-9.9-7.1l0-0.1l0-0.1c0.1-0.1,6.7-9.3,19.9-9.3c4.1,0,8.6,0.9,13.1,2.7c11.1,4.4,14.9,11.8,16.1,17.4
			c1.3,6,0,11,0,11L49,37.2z M23.7,20c16.8,0,24,13.4,25.2,16.1c0.3-1.4,1-5.6-0.1-10.4c-1.2-5.4-4.9-12.8-15.9-17.1
			c-4.5-1.8-8.9-2.7-13-2.7c-12.5,0-19,8.3-19.6,9.1c0.1,0.7,1.4,6.8,9.5,6.8c1.5,0,3.2-0.2,5.1-0.7C17.9,20.4,20.9,20,23.7,20z"/>
		<polygon class="st0" points="49.3,40.8 48.7,40.4 48.7,35.9 49.1,36 49.1,36.2 49.3,36.2 		"/>
		<path class="st0" d="M48.8,36.6c0-0.1-1-12.6-11.2-19.8c-8.6-6-21.2-6.6-37.3-1.8l-0.1-0.3c16.2-4.9,28.9-4.3,37.6,1.8
			c10.4,7.2,11.4,19.9,11.4,20L48.8,36.6z"/>
		<polygon class="st0" points="44.2,23.4 35.5,22.9 35.5,22.6 43.8,23 41.8,13.8 42.1,13.7 		"/>
		<polygon class="st0" points="18,20.8 17.8,20.5 30.4,13.3 21.4,5.9 21.7,5.6 31,13.4 		"/>
		<path class="st1" d="M41,21.5h-5.3c0,0-5.5-4.2-12.1-3.1l7.1-4C30.7,14.5,37.8,17,41,21.5z"/>
		<path class="st2" d="M41,14.5l1,4.4c0,0-3.6-5.3-11.1-6.8c-0.1,0-0.1,0-0.2,0l-4.8-4.5C25.9,7.5,33.5,8.4,41,14.5z"/>
		<path class="st3" d="M27.2,13.8l-9.8,5.7c0,0-12.6,3.7-15.1-4C2.3,15.5,15.4,11.6,27.2,13.8z"/>
		<path class="st4" d="M26.2,11l-4.5-4.1c0,0-10.2-1-18.4,5.9C3.3,12.8,19.5,8.3,26.2,11z"/>
		<path class="st5" d="M43.6,16.5c0,0,6,6.5,5.3,16.4c0,0-1.2-6.1-4-10.2L43.6,16.5z"/>
		<path class="st6" d="M47.9,33.4c0,0-2.3-7.1-4.3-9.4l-5-0.2C38.6,23.8,45.1,26.9,47.9,33.4z"/>
		<polygon class="st0" points="49.3,34.7 48.4,33.4 48.1,34.9 48.9,35.7 		"/>
	</g>
	<g>
		<g>
			<path class="st7" d="M68,28.1l4.1,1.8c-0.1,2.6-0.7,4.7-1.9,6.1c-1.2,1.4-2.8,2.1-4.7,2.1c-2.6,0-4.5-1-5.7-3.1
				c-1.1-2-1.7-5.5-1.7-10.4c0-4.6,0.5-8,1.4-10.1c1-2.1,2.5-3.1,4.5-3.1c1.6,0,2.9,0.8,3.7,2.4h0.1v-2.1h4.3v9.3h-4.3
				c0-2.1-0.2-3.5-0.6-4.4c-0.4-0.8-1-1.2-1.9-1.2c-1,0-1.6,0.5-1.9,1.6s-0.5,3-0.5,5.6v3.9c0,2.7,0.2,4.6,0.6,5.7
				c0.4,1,1,1.6,1.9,1.6c0.9,0,1.6-0.4,2-1.2C67.8,31.8,68,30.3,68,28.1z"/>
			<path class="st7" d="M87.6,33.2v4.3H81v-2.2h-0.1c-1,1.7-2.4,2.5-4.2,2.5c-1.6,0-2.9-0.7-4-2.2c-1-1.5-1.5-3.4-1.5-5.7
				c0-2.6,0.6-4.6,1.7-6c1.1-1.4,2.6-2.1,4.4-2.1c1.5,0,2.7,0.6,3.7,1.8v-4.4c0-1.7-0.2-2.8-0.6-3.2c-0.4-0.5-1-0.7-1.7-0.7
				c-1.5,0-2.4,1.1-2.5,3.3l-4.3-1.2c0.3-1.9,1.1-3.4,2.4-4.5c1.2-1.1,2.8-1.6,4.6-1.6c2,0,3.6,0.6,4.9,1.9c1.3,1.3,1.9,3,1.9,5.2
				v14.9H87.6z M81,32.4v-5.7c-0.7-0.8-1.5-1.2-2.3-1.2c-1.7,0-2.6,1.4-2.6,4.2c0,2.7,0.9,4,2.6,4C79.6,33.8,80.3,33.3,81,32.4z"/>
			<path class="st7" d="M88.5,37.5v-4.3H91V16h-2.4v-4.3H91v-4c0-2.4,0.5-4.3,1.6-5.7C93.7,0.7,95.3,0,97.3,0c2.8,0,4.7,1.5,5.6,4.6
				l-4.2,1.4l-0.1-0.4C98.2,4.5,97.7,4,97,4c-0.6,0-1,0.3-1.2,0.9c-0.2,0.6-0.2,1.5-0.2,2.9v4h4.5V16h-4.5v17.2h3.5v4.3H88.5z"/>
			<path class="st7" d="M114.6,11.8v21.5h3.8v4.3H110v-2.1h-0.1c-1.1,1.6-2.4,2.4-3.9,2.4c-2.9,0-4.4-2.1-4.4-6.4V16h-2.1v-4.3h6.7
				v19c0,1,0.1,1.8,0.3,2.2c0.2,0.4,0.6,0.6,1.2,0.6c0.6,0,1.1-0.3,1.6-0.8c0.5-0.6,0.7-0.9,0.7-1V16h-2.3v-4.3H114.6z"/>
			<path class="st7" d="M117.7,37.5v-4.3h1.9V16h-2v-4.3h6.6v2.1h0.1c1.1-1.6,2.4-2.4,3.9-2.4c1.4,0,2.4,0.6,3.2,1.7
				c0.8,1.1,1.2,2.7,1.2,4.7v15.4l4.6,0l3.7,4.2H128v-19c0-1-0.1-1.8-0.3-2.2c-0.2-0.4-0.6-0.6-1.1-0.6c-0.6,0-1.2,0.3-1.6,0.8
				c-0.5,0.6-0.7,0.9-0.7,1v15.6h1.9v4.3H117.7z"/>
			<path class="st7" d="M145.8,29.7l4.1,1.5c-0.6,2.2-1.4,3.9-2.6,5.1c-1.2,1.2-2.5,1.8-4,1.8c-2.4,0-4.2-1.1-5.4-3.2
				c-1.1-2.1-1.7-5.5-1.7-10.1c0-4.6,0.6-8.1,1.7-10.3s2.9-3.4,5.3-3.4c2,0,3.6,0.9,4.9,2.8c1.3,1.9,1.9,4.5,1.9,8v3.9h-9V27
				c0,2.3,0.2,4,0.5,5.1c0.4,1.1,1,1.7,1.8,1.7C144.8,33.9,145.6,32.5,145.8,29.7z M139.7,8.8l3.9-7.5h5l-5.5,7.5H139.7z M141,22.3
				h4.4V20c0-3.2-0.7-4.8-2.2-4.8c-0.8,0-1.4,0.5-1.7,1.4c-0.3,0.9-0.5,2.5-0.5,4.5V22.3z"/>
		</g>
		<rect x="86.4" y="33.2" class="st7" width="4.1" height="4.3"/>
		<rect x="68" y="28" class="st7" width="4.5" height="3"/>
	</g>
	<rect x="58.1" y="44.1" class="st7" width="91.9" height="0.9"/>
	<g>
		<path class="st7" d="M60.8,54c-0.1-0.5-0.3-1.1-1-1.1c-0.6,0-0.9,0.5-0.9,0.9c0,0.6,0.4,0.9,1,1.2c0.6,0.3,1.4,0.6,1.4,1.6
			c0,0.9-0.7,1.5-1.8,1.5c-0.3,0-0.6-0.1-0.8-0.1c-0.2-0.1-0.3-0.1-0.4-0.2c-0.1-0.2-0.2-0.8-0.2-1.2l0.3-0.1
			c0.1,0.5,0.5,1.3,1.3,1.3c0.6,0,1-0.4,1-1c0-0.6-0.5-0.9-1.1-1.2c-0.5-0.3-1.3-0.6-1.3-1.5c0-0.8,0.6-1.4,1.6-1.4
			c0.3,0,0.6,0.1,1,0.2c0,0.3,0.1,0.6,0.1,1.1L60.8,54z"/>
		<path class="st7" d="M67.2,55.3c0,1.8-1.2,2.8-2.7,2.8c-1.4,0-2.6-1.1-2.6-2.7c0-1.5,1-2.8,2.7-2.8C66,52.6,67.2,53.6,67.2,55.3z
			 M62.7,55.2c0,1.5,0.9,2.6,2,2.6c0.9,0,1.7-0.7,1.7-2.3c0-1.7-0.9-2.5-2-2.5C63.6,52.9,62.7,53.6,62.7,55.2z"/>
		<path class="st7" d="M73.3,53c-0.5,0-0.7,0.1-0.7,0.5c0,0.2,0,0.6,0,1.4v0.6c0,1-0.2,1.7-0.6,2.2c-0.4,0.4-0.9,0.6-1.5,0.6
			c-0.5,0-0.9-0.1-1.3-0.4c-0.5-0.4-0.7-1-0.7-1.9v-2c0-0.7-0.1-0.7-0.7-0.8v-0.2h2V53c-0.6,0-0.7,0.1-0.7,0.8v1.8
			c0,1.4,0.6,2.1,1.5,2.1c1.1,0,1.5-0.9,1.5-2.3v-0.5c0-0.8,0-1.1-0.1-1.4c0-0.3-0.2-0.4-0.8-0.4v-0.2h2V53z"/>
		<path class="st7" d="M78,54c-0.1-0.4-0.1-0.6-0.2-0.7c-0.1-0.2-0.2-0.3-0.8-0.3h-0.6V57c0,0.6,0.1,0.7,0.8,0.8V58h-2.3v-0.3
			c0.8,0,0.8-0.1,0.8-0.8V53h-0.6c-0.6,0-0.8,0.1-0.9,0.2c-0.1,0.1-0.1,0.4-0.2,0.7h-0.3c0-0.5,0.1-1,0.1-1.4H74
			c0.1,0.2,0.2,0.2,0.4,0.2h3.2c0.2,0,0.3-0.1,0.4-0.2h0.2c0,0.4,0,1,0.1,1.4L78,54z"/>
		<path class="st7" d="M84.4,53c-0.7,0.1-0.7,0.1-0.7,0.8V57c0,0.7,0.1,0.7,0.7,0.7V58h-2.1v-0.3c0.7,0,0.8-0.1,0.8-0.7v-1.6h-2.8
			V57c0,0.7,0.1,0.7,0.7,0.7V58h-2.1v-0.3c0.7,0,0.7-0.1,0.7-0.7v-3.2c0-0.7-0.1-0.7-0.8-0.8v-0.2h2.1V53c-0.6,0.1-0.7,0.1-0.7,0.8
			V55H83v-1.3c0-0.7-0.1-0.7-0.7-0.8v-0.2h2.1V53z"/>
		<path class="st7" d="M89.9,58v-0.3c0.5-0.1,0.6-0.1,0.5-0.4L90,56.1h-1.8c-0.1,0.3-0.2,0.7-0.3,1c-0.2,0.5-0.1,0.6,0.5,0.7V58
			h-1.8v-0.3c0.5-0.1,0.6-0.1,0.9-0.8l1.6-4.2l0.3-0.1c0.5,1.3,1,2.9,1.6,4.3c0.2,0.7,0.3,0.8,0.9,0.8V58H89.9z M89.2,53.6
			L89.2,53.6c-0.3,0.7-0.5,1.4-0.8,2.1h1.5L89.2,53.6z"/>
		<path class="st7" d="M96.9,58v-0.3c0.7-0.1,0.7-0.1,0.7-1l0-3.3h0l-2,4.4h-0.2l-1.8-4.3h0l-0.1,2.3c0,0.7,0,1,0,1.3
			c0,0.4,0.2,0.4,0.8,0.5V58h-1.9v-0.3c0.5,0,0.6-0.1,0.7-0.5c0-0.3,0.1-0.6,0.1-1.5l0.1-1.7c0.1-1,0-1-0.7-1.1v-0.2h1.3l1.8,4.1
			l1.9-4.1h1.4V53c-0.7,0.1-0.8,0.1-0.8,0.9l0.1,2.8c0,0.9,0.1,0.9,0.8,1V58H96.9z"/>
		<path class="st7" d="M103.7,56.7c0,0.2-0.2,1-0.3,1.3h-3.9v-0.2c0.8-0.1,0.8-0.1,0.8-0.8v-3.2c0-0.7-0.1-0.7-0.7-0.8v-0.2h3.6
			c0,0.2,0,0.7,0.1,1.2l-0.3,0c-0.1-0.3-0.1-0.5-0.3-0.7c-0.1-0.2-0.3-0.2-0.9-0.2h-0.7c-0.2,0-0.3,0-0.3,0.3v1.8h0.8
			c0.7,0,0.8-0.1,0.9-0.6h0.3V56h-0.3c-0.1-0.6-0.1-0.6-0.9-0.6h-0.8v1.5c0,0.4,0.1,0.6,0.2,0.7c0.2,0.1,0.4,0.1,0.9,0.1
			c0.6,0,0.8-0.1,1-0.3c0.1-0.1,0.3-0.4,0.4-0.8L103.7,56.7z"/>
		<path class="st7" d="M109,58c-0.1,0-0.2,0-0.3,0c-0.5,0-0.8-0.2-1.2-0.7c-0.3-0.4-0.6-0.9-0.8-1.3c-0.1-0.2-0.3-0.3-0.7-0.3h-0.3
			v1.2c0,0.7,0.1,0.7,0.7,0.8V58h-2.1v-0.3c0.7,0,0.8-0.1,0.8-0.8v-3.2c0-0.7-0.1-0.7-0.7-0.8v-0.2h2c0.6,0,1,0.1,1.3,0.3
			c0.3,0.2,0.5,0.6,0.5,1.1c0,0.7-0.4,1.1-1,1.4c0.1,0.3,0.5,0.8,0.7,1.2c0.3,0.4,0.4,0.6,0.6,0.8c0.2,0.2,0.4,0.3,0.6,0.4L109,58z
			 M106,55.4c0.4,0,0.7-0.1,0.9-0.2c0.3-0.2,0.5-0.6,0.5-1c0-0.9-0.6-1.2-1.2-1.2c-0.2,0-0.4,0-0.4,0.1c-0.1,0.1-0.1,0.1-0.1,0.4v2
			H106z"/>
		<path class="st7" d="M109.2,58v-0.3c0.7,0,0.7-0.1,0.7-0.8v-3.2c0-0.7-0.1-0.7-0.7-0.8v-0.2h2.1V53c-0.7,0.1-0.8,0.1-0.8,0.8v3.2
			c0,0.7,0.1,0.7,0.8,0.8V58H109.2z"/>
		<path class="st7" d="M116.7,56.6c-0.1,0.4-0.3,1-0.5,1.2c-0.2,0.1-0.9,0.2-1.5,0.2c-2,0-2.8-1.4-2.8-2.6c0-1.7,1.3-2.8,3.1-2.8
			c0.6,0,1.2,0.2,1.4,0.2c0.1,0.5,0.1,0.8,0.2,1.2l-0.3,0.1c-0.2-0.8-0.6-1.2-1.6-1.2c-1.4,0-2.1,1.1-2.1,2.3c0,1.5,0.9,2.5,2.1,2.5
			c0.8,0,1.2-0.4,1.6-1.2L116.7,56.6z"/>
		<path class="st7" d="M120.4,58v-0.3c0.5-0.1,0.6-0.1,0.5-0.4l-0.4-1.2h-1.8c-0.1,0.3-0.2,0.7-0.3,1c-0.2,0.5-0.1,0.6,0.5,0.7V58
			h-1.8v-0.3c0.5-0.1,0.6-0.1,0.9-0.8l1.6-4.2l0.3-0.1c0.5,1.3,1,2.9,1.6,4.3c0.2,0.7,0.3,0.8,0.9,0.8V58H120.4z M119.6,53.6
			L119.6,53.6c-0.3,0.7-0.5,1.4-0.8,2.1h1.5L119.6,53.6z"/>
		<path class="st7" d="M128.3,53c-0.5,0-0.7,0.1-0.7,0.5c0,0.2,0,0.6,0,1.4V58h-0.3l-3.4-4.2h0v2c0,0.7,0,1.1,0,1.4
			c0.1,0.4,0.3,0.5,0.8,0.5V58h-2v-0.3c0.5,0,0.7-0.1,0.7-0.5c0-0.3,0.1-0.6,0.1-1.4v-1.8c0-0.6,0-0.6-0.2-0.8
			c-0.2-0.2-0.4-0.3-0.7-0.3v-0.2h1.2l3.4,4.1h0v-2c0-0.8,0-1.1-0.1-1.3c0-0.4-0.2-0.5-0.8-0.5v-0.2h2V53z"/>
		<path class="st7" d="M135.5,56.6c-0.1,0.4-0.3,1-0.5,1.2c-0.2,0.1-0.9,0.2-1.5,0.2c-2,0-2.8-1.4-2.8-2.6c0-1.7,1.3-2.8,3.1-2.8
			c0.6,0,1.2,0.2,1.4,0.2c0.1,0.5,0.1,0.8,0.2,1.2l-0.3,0.1c-0.2-0.8-0.6-1.2-1.6-1.2c-1.4,0-2.1,1.1-2.1,2.3c0,1.5,0.9,2.5,2.1,2.5
			c0.8,0,1.2-0.4,1.6-1.2L135.5,56.6z"/>
		<path class="st7" d="M139.2,58v-0.3c0.5-0.1,0.6-0.1,0.5-0.4l-0.4-1.2h-1.8c-0.1,0.3-0.2,0.7-0.3,1c-0.2,0.5-0.1,0.6,0.5,0.7V58
			h-1.8v-0.3c0.5-0.1,0.6-0.1,0.9-0.8l1.6-4.2l0.3-0.1c0.5,1.3,1,2.9,1.6,4.3c0.2,0.7,0.3,0.8,0.9,0.8V58H139.2z M138.4,53.6
			L138.4,53.6c-0.3,0.7-0.5,1.4-0.8,2.1h1.5L138.4,53.6z"/>
		<path class="st7" d="M145,54c-0.1-0.3-0.1-0.5-0.2-0.7c-0.1-0.2-0.3-0.3-0.9-0.3h-0.7c-0.2,0-0.3,0-0.3,0.3v1.9h0.9
			c0.7,0,0.8-0.1,0.9-0.6h0.3v1.6h-0.3c-0.1-0.6-0.1-0.7-0.9-0.7h-0.9v1.4c0,0.7,0.1,0.7,0.8,0.8V58h-2.2v-0.3
			c0.7,0,0.7-0.1,0.7-0.8v-3.2c0-0.7-0.1-0.7-0.7-0.8v-0.2h3.5c0,0.3,0,0.8,0.1,1.2L145,54z"/>
		<path class="st7" d="M150,56.7c0,0.2-0.2,1-0.3,1.3h-3.9v-0.2c0.8-0.1,0.8-0.1,0.8-0.8v-3.2c0-0.7-0.1-0.7-0.7-0.8v-0.2h3.6
			c0,0.2,0,0.7,0.1,1.2l-0.3,0c-0.1-0.3-0.1-0.5-0.3-0.7c-0.1-0.2-0.3-0.2-0.9-0.2h-0.7c-0.2,0-0.3,0-0.3,0.3v1.8h0.8
			c0.7,0,0.8-0.1,0.9-0.6h0.3V56h-0.3c-0.1-0.6-0.1-0.6-0.9-0.6h-0.8v1.5c0,0.4,0.1,0.6,0.2,0.7c0.2,0.1,0.4,0.1,0.9,0.1
			c0.6,0,0.8-0.1,1-0.3c0.1-0.1,0.3-0.4,0.4-0.8L150,56.7z M149.1,51.9l-1.5,0.5l-0.1-0.2l1.3-0.8C148.8,51.4,149.1,51.8,149.1,51.9
			L149.1,51.9z"/>
	</g>
</g>
<g>
</g>
<g>
</g>
<g>
</g>
<g>
</g>
<g>
</g>
<g>
</g>
</svg>
