<?xml version="1.0" encoding="utf-8"?>
<!-- Generator: Adobe Illustrator 21.0.2, SVG Export Plug-In . SVG Version: 6.00 Build 0)  -->
<svg version="1.1" id="Layer_1" xmlns="http://www.w3.org/2000/svg" xmlns:xlink="http://www.w3.org/1999/xlink" x="0px" y="0px"
	 width="106.5px" height="75.4px" viewBox="0 0 106.5 75.4" style="enable-background:new 0 0 106.5 75.4;" xml:space="preserve">
<style type="text/css">
	.st0{fill:#F9F9FA;}
	.st1{fill:#9C7B48;}
	.st2{fill:#F1D471;}
	.st3{fill:#2FBCE4;}
	.st4{fill:#E39633;}
	.st5{fill:#00B07D;}
	.st6{fill:#DB736F;}
	.st7{fill:#C43854;}
</style>
<g>
	<path class="st0" d="M104.9,67.6l-0.4-1c-0.1-0.3-14.5-35-53.8-35c-5.9,0-12.2,0.8-18.6,2.3c-4,0.9-7.7,1.4-11,1.4
		C2.4,35.4,0,20.3,0,20.1L0,20l0.1-0.1C0.2,19.7,14.3,0,42.6,0c8.9,0,18.3,1.9,28,5.7c23.8,9.3,31.9,25.3,34.5,37.2
		c2.8,12.8,0,23.5,0,23.6L104.9,67.6z"/>
	<path class="st0" d="M50.7,30.9c36,0,51.3,28.7,54,34.4c0.6-3,2.1-11.9-0.2-22.3c-2.6-11.6-10.6-27.4-34.1-36.6
		c-9.6-3.8-19-5.7-27.8-5.7C15.8,0.7,2,18.5,0.8,20.2c0.3,1.6,3,14.5,20.4,14.5c3.3,0,6.9-0.5,10.8-1.4
		C38.4,31.7,44.7,30.9,50.7,30.9z"/>
</g>
<polygon class="st0" points="105.4,65.6 105,65.6 105.2,65.1 104.2,64.8 104.2,74.6 105.4,75.4 "/>
<path class="st0" d="M105.2,66.4c0-0.3-2.1-27.3-24.3-42.8C62.1,10.6,35,9.3,0.3,19.7l0.2,0.7c34.5-10.3,61.4-9.1,79.9,3.8
	c22,15.3,24,42,24,42.3L105.2,66.4z"/>
<polygon class="st0" points="90.2,17.4 89.5,17.6 93.8,37.3 76,36.4 76,37.1 94.7,38.1 "/>
<polygon class="st0" points="66.4,16.7 46.4,0.1 45.9,0.6 65.1,16.6 38.1,32 38.4,32.6 "/>
<path class="st0" d="M65.8,19.1l-15.2,8.5c14.2-2.4,26,6.5,26,6.5h11.3C81,24.5,65.8,19.1,65.8,19.1z"/>
<path class="st0" d="M55.5,4.1l10.2,9.7c0.1,0,0.3,0,0.4,0.1c16.1,3.2,23.8,14.6,23.8,14.6l-2.1-9.5C71.8,6,55.5,4.1,55.5,4.1z"/>
<path class="st0" d="M5,21.2c5.4,16.6,32.3,8.6,32.3,8.6l21-12.3C33,13,5,21.2,5,21.2z"/>
<path class="st0" d="M56.1,11.7l-9.6-8.8c0,0-21.9-2.2-39.4,12.7C7.1,15.5,41.7,5.7,56.1,11.7z"/>
<path class="st0" d="M96.1,36.5c5.9,8.7,8.5,21.9,8.5,21.9c1.5-21.1-11.3-35-11.3-35L96.1,36.5z"/>
<path class="st0" d="M102.5,59.5c0,0-5-15.1-9.2-20.1l-10.6-0.4C82.7,38.9,96.5,45.7,102.5,59.5z"/>
<polygon class="st0" points="105.6,62.4 103.7,59.5 103,62.7 104.7,64.5 "/>
<g>
	<path class="st1" d="M104.9,67.6l-0.4-1c-0.1-0.3-14.5-35-53.8-35c-5.9,0-12.2,0.8-18.6,2.3c-4,0.9-7.7,1.4-11,1.4
		C2.4,35.4,0,20.3,0,20.1L0,20l0.1-0.1C0.2,19.7,14.3,0,42.6,0c8.9,0,18.3,1.9,28,5.7c23.8,9.3,31.9,25.3,34.5,37.2
		c2.8,12.8,0,23.5,0,23.6L104.9,67.6z M50.7,30.9c36,0,51.3,28.7,54,34.4c0.6-3,2.1-11.9-0.2-22.3c-2.6-11.6-10.6-27.4-34.1-36.6
		c-9.6-3.8-19-5.7-27.8-5.7C15.8,0.7,2,18.5,0.8,20.2c0.3,1.6,3,14.5,20.4,14.5c3.3,0,6.9-0.5,10.8-1.4
		C38.4,31.7,44.7,30.9,50.7,30.9z"/>
	<polygon class="st1" points="105.4,75.4 104.2,74.6 104.2,64.8 105.2,65.1 105,65.6 105.4,65.6 	"/>
	<path class="st1" d="M104.5,66.5c0-0.3-2-27-24-42.3C61.9,11.3,35,10.1,0.5,20.4l-0.2-0.7C35,9.3,62.1,10.6,80.8,23.6
		c22.3,15.5,24.3,42.5,24.3,42.8L104.5,66.5z"/>
	<polygon class="st1" points="94.7,38.1 76,37.1 76,36.4 93.8,37.3 89.5,17.6 90.2,17.4 	"/>
	<polygon class="st1" points="38.4,32.6 38.1,32 65.1,16.6 45.9,0.6 46.4,0.1 66.4,16.7 	"/>
	<path class="st2" d="M87.8,34.1H76.5c0,0-11.8-8.9-26-6.5l15.2-8.5C65.8,19.1,81,24.5,87.8,34.1z"/>
	<path class="st3" d="M87.8,19.1l2.1,9.5c0,0-7.6-11.4-23.8-14.6c-0.1,0-0.2,0-0.4-0.1L55.5,4.1C55.5,4.1,71.8,6,87.8,19.1z"/>
	<path class="st4" d="M58.3,17.5l-21,12.3c0,0-26.9,7.9-32.3-8.6C5,21.2,33,13,58.3,17.5z"/>
	<path class="st5" d="M56.1,11.7l-9.6-8.8c0,0-21.9-2.2-39.4,12.7C7.1,15.5,41.7,5.7,56.1,11.7z"/>
	<path class="st6" d="M93.3,23.4c0,0,12.8,13.9,11.3,35c0,0-2.6-13.1-8.5-21.9L93.3,23.4z"/>
	<path class="st7" d="M102.5,59.5c0,0-5-15.1-9.2-20.1l-10.6-0.4C82.7,38.9,96.5,45.7,102.5,59.5z"/>
	<polygon class="st1" points="105.6,62.4 103.7,59.5 103,62.7 104.7,64.5 	"/>
</g>
<g>
</g>
<g>
</g>
<g>
</g>
<g>
</g>
<g>
</g>
<g>
</g>
</svg>
